# AST/ASF file generated using VICON BodyLanguage
# -----------------------------------------------
:version 1.10
:name VICON
:units
  mass 1.0
  length 0.45
  angle deg
:documentation
   .ast/.asf automatically generated from VICON data using
   VICON BodyBuilder and BodyLanguage model FoxedUp or BRILLIANT.MOD
:root
   order TX TY TZ RX RY RZ
   axis XYZ
   position 0 0 0  
   orientation 0 0 0 
:bonedata
  begin
     id 1 
     name lhipjoint
     direction 0.700308 -0.549349 0.455834 
     length 2.59063 
     axis 0 0 0  XYZ
  end
  begin
     id 2 
     name lfemur
     direction 0.34202 -0.939693 0  
     length 6.31066  
     axis 0 0 20  XYZ
    dof rx ry rz
    limits (-160.0 20.0)
           (-70.0 70.0)
           (-60.0 70.0)
  end
  begin
     id 3 
     name ltibia
     direction 0.34202 -0.939693 0   
     length 7.36093   
     axis 0 0 20   XYZ
    dof rx
    limits (-10.0 170.0)
  end
  begin
     id 4 
     name lfoot
     direction 0.0905332 -0.248738 0.96433   
     length 2.0233   
     axis -90 7.62852e-016 20   XYZ
    dof rx rz
    limits (-45.0 90.0)
           (-70.0 20.0)
  end
  begin
     id 5 
     name ltoes
     direction 1.53573e-011 -4.21855e-011 1   
     length 1.01524   
     axis -90 7.62852e-016 20   XYZ
    dof rx
    limits (-90.0 20.0)
  end
  begin
     id 6 
     name rhipjoint
     direction -0.61416 -0.607328 0.503944   
     length 2.34332  
     axis 0 0 0  XYZ 
  end
  begin
     id 7 
     name rfemur
     direction -0.34202 -0.939693 0   
     length 6.58548   
     axis 0 0 -20   XYZ
    dof rx ry rz
    limits (-160.0 20.0)
           (-70.0 70.0)
           (-70.0 60.0)
  end
  begin
     id 8 
     name rtibia
     direction -0.34202 -0.939693 0   
     length 7.20707   
     axis 0 0 -20   XYZ
    dof rx
    limits (-10.0 170.0)
 end
 begin
     id 9 
     name rfoot
     direction -0.136772 -0.375778 0.916561   
     length 1.92184  
     axis -90 -7.62852e-016 -20   XYZ
    dof rx rz
    limits (-45.0 90.0)
           (-20.0 70.0)
  end
  begin
     id 10 
     name rtoes
     direction -1.53535e-011 -4.21828e-011 1   
     length 0.951089   
     axis -90 -7.62852e-016 -20   XYZ
    dof rx
    limits (-90.0 20.0)
  end
  begin
     id 11 
     name lowerback
     direction -0.0444974 0.988086 -0.147332   
     length 1.9609   
     axis 0 0 0   XYZ
    dof rx ry rz
    limits (-20.0 45.0)
           (-30.0 30.0)
           (-30.0 30.0)
  end
  begin
     id 12 
     name upperback
     direction 0.00613146 0.999513 0.0306081   
     length 1.94944   
     axis 0 0 0   XYZ
    dof rx ry rz
    limits (-20.0 45.0)
           (-30.0 30.0)
           (-30.0 30.0)
  end
  begin
     id 13 
     name thorax
     direction 0.0254621 0.994518 0.101418   
     length 2.0119   
     axis 0 0 0   XYZ
    dof rx ry rz
    limits (-20.0 45.0)
           (-30.0 30.0)
           (-30.0 30.0)
  end
  begin
     id 14 
     name lowerneck
     direction 0.0168698 0.977854 0.208608   
     length 1.6375   
     axis 0 0 0   XYZ
    dof rx ry rz
    limits (-20.0 45.0)
           (-30.0 30.0)
           (-30.0 30.0)
  end
  begin
     id 15 
     name upperneck
     direction -0.0283988 0.989338 -0.142843   
     length 1.6851   
     axis 0 0 0   XYZ
    dof rx ry rz
    limits (-20.0 45.0)
           (-30.0 30.0)
           (-30.0 30.0)
  end
  begin
     id 16
     name head
     direction -0.0129422 0.99741 -0.0707489  
     length 1.69029  
     axis 0 0 0   XYZ
    dof rx ry rz
    limits (-20.0 45.0)
           (-30.0 30.0)
           (-30.0 30.0)
  end
  begin
     id 17 
     name lclavicle
     direction 0.820295 0.564628 -0.0911715  
     length 3.16484  
     axis 0 0 0   XYZ
    dof ry rz
    limits (-20.0 10.0)
           (0.0 20.0)
  end
  begin
     id 18 
     name lhumerus
     direction 1 -4.48969e-011 1.00186e-027   
     length 5.17853   
     axis 180 -30 -90   XYZ
    dof rx ry rz
    limits (-60.0 90.0)
           (-90.0 90.0)
           (-90.0 90.0)
  end
  begin
     id 19
     name lradius
     direction 1 -4.48966e-011 -1.52922e-027   
     length 3.40399   
     axis 180 -30 -90   XYZ
    dof rx
    limits (-10.0 170.0)
  end
  begin
     id 20
     name lwrist
     direction 1 -4.48981e-011 -3.80893e-027   
     length 1.70199   
     axis 1.1049e-015 90 90   XYZ
    dof ry
    limits (-180.0 0.0)
 end
  begin
     id 21 
     name lhand
     direction 1 -4.48957e-011 -7.61786e-027   
     length 0.708964   
     axis 4.86085e-015 90 90   XYZ
    dof rx rz
    limits (-90.0 90.0)
           (-45.0 45.0)
  end
  begin
     id 22 
     name lfingers
     direction 1 -4.48929e-011 -1.52357e-026   
     length 0.571585   
     axis 9.7217e-015 90 90   XYZ
    dof rx
    limits (0.0 90.0)
  end
  begin
     id 23
     name lthumb
     direction 0.707107 -6.34905e-011 0.707107   
     length 0.820685   
     axis -90 45 2.85299e-015   XYZ
    dof rx rz
    limits (-45.0 45.0)
           (-45.0 45.0)
  end
  begin
     id 24 
     name rclavicle
     direction -0.858602 0.463947 -0.218075   
     length 3.35137  
     axis 0 0 0   XYZ 
    dof ry rz
    limits (-10.0 20.0)
           (-20.0 0.0)
  end
  begin
     id 25 
     name rhumerus
     direction -1 -4.48969e-011 -1.98511e-027  
     length 5.42351   
     axis 180 30 90   XYZ
    dof rx ry rz
    limits (-90.0 60.0)
           (-90.0 90.0)
           (-90.0 90.0)
  end
  begin
     id 26 
     name rradius
     direction -1 -4.48961e-011 -2.82624e-027   
     length 3.42066   
     axis 180 30 90   XYZ
    dof rx
    limits (-10.0 170.0)
  end
  begin
     id 27 
     name rwrist
     direction -1 -4.48966e-011 -3.80893e-027   
     length 1.71033   
     axis 1.1049e-015 -90 -90   XYZ
    dof ry
    limits (-180.0 0.0)
  end
  begin
     id 28
     name rhand
     direction -1 -4.48964e-011 -7.61786e-027   
     length 0.743608   
     axis 4.86085e-015 -90 -90   XYZ
    dof rx rz
    limits (-90.0 90.0)
           (-45.0 45.0)
  end
  begin
     id 29
     name rfingers
     direction -1 -4.48961e-011 -1.52357e-026   
     length 0.599516   
     axis 9.7217e-015 -90 -90   XYZ
    dof rx
    limits (0.0 90.0)
  end
  begin
     id 30
     name rthumb
     direction -0.707107 -6.34913e-011 0.707107   
     length 0.860789   
     axis -90 -45 -2.85299e-015   XYZ
    dof rx rz
    limits (-45.0 45.0)
           (-45.0 45.0)
  end
:hierarchy
  begin
    root lhipjoint rhipjoint lowerback
    lhipjoint lfemur
    lfemur ltibia
    ltibia lfoot
    lfoot ltoes
    rhipjoint rfemur
    rfemur rtibia
    rtibia rfoot
    rfoot rtoes
    lowerback upperback
    upperback thorax
    thorax lowerneck lclavicle rclavicle
    lowerneck upperneck
    upperneck head
    lclavicle lhumerus
    lhumerus lradius
    lradius lwrist
    lwrist lhand lthumb
    lhand lfingers
    rclavicle rhumerus
    rhumerus rradius
    rradius rwrist
    rwrist rhand rthumb
    rhand rfingers
  end

#!OML:ASF E:\mmandel\Project 1\Capture day 1\Session 2\Subject.ASF
:FULLY-SPECIFIED
:DEGREES
112
root 4.11853 16.3893 -0.22832 44.8986 86.5341 39.2524
lowerback -5.00932 0.465035 -6.30824
upperback -1.49953 0.96436 -0.112673
thorax 1.15898 0.493744 3.48052
lowerneck -17.4855 0.534726 3.26086
upperneck 25.6358 0.80115 -2.37358
head 11.2334 0.517321 -1.27606
rclavicle 8.09116e-015 -9.44227e-015
rhumerus -28.9064 0.904602 -86.989
rradius 21.0748
rwrist -8.9823
rhand -9.55162 27.5926
rfingers 7.12502
rthumb 16.4154 -1.73278
lclavicle 8.09116e-015 -9.44227e-015
lhumerus -33.9208 -20.4279 97.3589
lradius 21.9333
lwrist 19.0855
lhand -12.7488 -27.3056
lfingers 7.12502
lthumb 13.3354 2.24772
rfemur -14.624 10.43 15.3297
rtibia 33.7083
rfoot -31.4044 -19.1987
rtoes 2.17234
lfemur -4.21124 -7.54387 -20.1311
ltibia 16.5301
lfoot -17.7191 17.77
ltoes 3.53614
113
root 4.12059 16.3898 -0.229913 43.2919 86.591 37.6733
lowerback -5.01487 0.481503 -6.16618
upperback -1.47827 0.979485 -0.10266
thorax 1.18493 0.499723 3.41225
lowerneck -17.4727 0.53756 3.23186
upperneck 25.5811 0.795706 -2.3188
head 11.2098 0.517844 -1.25154
rclavicle -1.29831e-014 8.15017e-015
rhumerus -28.8757 0.858258 -87.0109
rradius 21.06
rwrist -8.93865
rhand -9.4904 27.6158
rfingers 7.12502
rthumb 16.4743 -1.70471
lclavicle -1.29831e-014 8.15017e-015
lhumerus -33.9137 -20.5084 97.349
lradius 21.9991
lwrist 19.118
lhand -12.8925 -27.2778
lfingers 7.12502
lthumb 13.1968 2.28448
rfemur -14.5819 10.3695 15.4484
rtibia 33.6713
rfoot -31.4501 -19.338
rtoes 2.07773
lfemur -4.2119 -7.50987 -20.026
ltibia 16.6099
lfoot -17.6206 17.7632
ltoes 3.0588
114
root 4.12199 16.3899 -0.231393 41.8272 86.6362 36.2166
lowerback -5.03997 0.496538 -6.04641
upperback -1.46104 0.995344 -0.0983342
thorax 1.2173 0.50611 3.35095
lowerneck -17.5154 0.550414 3.22482
upperneck 25.5892 0.801914 -2.27631
head 11.2214 0.524856 -1.23405
rclavicle 9.25824e-015 3.97569e-016
rhumerus -28.8517 0.78464 -87.0279
rradius 21.0617
rwrist -8.84834
rhand -9.38905 27.674
rfingers 7.12502
rthumb 16.5719 -1.63838
lclavicle 9.25824e-015 3.97569e-016
lhumerus -33.8673 -20.5277 97.3006
lradius 22.0223
lwrist 19.1196
lhand -12.9846 -27.3934
lfingers 7.12502
lthumb 13.1081 2.17461
rfemur -14.5574 10.4083 15.5546
rtibia 33.6369
rfoot -31.4516 -19.3882
rtoes 1.90521
lfemur -4.22026 -7.59419 -19.9387
ltibia 16.675
lfoot -17.725 17.8122
ltoes 3.61249
115
root 4.12131 16.3895 -0.232693 42.2935 86.6248 36.6779
lowerback -5.07521 0.477452 -6.07244
upperback -1.4435 0.974556 -0.110082
thorax 1.257 0.494107 3.35296
lowerneck -17.4951 0.580258 3.25071
upperneck 25.5671 0.838418 -2.28304
head 11.2104 0.542845 -1.23538
rclavicle -9.74588e-015 2.88238e-015
rhumerus -28.8512 0.821278 -87.0594
rradius 21.077
rwrist -8.80959
rhand -9.3101 27.6028
rfingers 7.12502
rthumb 16.6479 -1.70323
lclavicle -9.74588e-015 2.88238e-015
lhumerus -33.8136 -20.5118 97.2566
lradius 22.0849
lwrist 19.1894
lhand -12.9808 -27.4648
lfingers 7.12502
lthumb 13.1117 2.10298
rfemur -14.5461 10.427 15.5147
rtibia 33.6111
rfoot -31.5222 -19.3491
rtoes 1.93254
lfemur -4.25942 -7.69173 -19.9757
ltibia 16.7285
lfoot -17.9134 17.8706
ltoes 3.88915
116
root 4.12138 16.39 -0.233623 42.6137 86.6074 36.9805
lowerback -5.08526 0.478641 -6.11984
upperback -1.44539 0.97905 -0.0977014
thorax 1.2591 0.496325 3.3928
lowerneck -17.5388 0.600311 3.22332
upperneck 25.5957 0.87543 -2.28574
head 11.2309 0.556627 -1.22654
rclavicle -8.75973e-015 1.07344e-014
rhumerus -28.8413 0.643744 -86.9623
rradius 21.0199
rwrist -8.58713
rhand -9.31249 27.5767
rfingers 7.12502
rthumb 16.6456 -1.72953
lclavicle -8.75973e-015 1.07344e-014
lhumerus -33.8282 -20.5826 97.316
lradius 22.2533
lwrist 19.2907
lhand -12.9686 -27.2349
lfingers 7.12502
lthumb 13.1234 2.3322
rfemur -14.5545 10.3911 15.4728
rtibia 33.5968
rfoot -31.4054 -19.3553
rtoes 1.78391
lfemur -4.309 -7.65688 -20.0001
ltibia 16.7782
lfoot -17.8871 17.8774
ltoes 3.44271
117
root 4.1233 16.3904 -0.234539 41.8032 86.5893 36.1724
lowerback -4.9978 0.508871 -6.14787
upperback -1.49761 1.0119 -0.0454147
thorax 1.15123 0.517335 3.46259
lowerneck -17.6323 0.583 3.14347
upperneck 25.7248 0.880247 -2.29458
head 11.298 0.551469 -1.21638
rclavicle 4.14419e-015 -5.86415e-015
rhumerus -28.8829 0.50063 -86.8269
rradius 20.9541
rwrist -8.39856
rhand -9.35471 27.5609
rfingers 7.12502
rthumb 16.605 -1.74874
lclavicle 4.14419e-015 -5.86415e-015
lhumerus -33.8844 -20.5782 97.4396
lradius 22.3187
lwrist 19.2801
lhand -12.9236 -27.0413
lfingers 7.12502
lthumb 13.1668 2.52296
rfemur -14.5554 10.395 15.4963
rtibia 33.5969
rfoot -31.2522 -19.3683
rtoes 1.52205
lfemur -4.30776 -7.63809 -19.9819
ltibia 16.8056
lfoot -17.8531 17.9259
ltoes 3.25308
118
root 4.12612 16.3875 -0.237828 41.127 86.5518 35.5496
lowerback -4.90152 0.544608 -6.13166
upperback -1.51321 1.05097 -0.0398542
thorax 1.07738 0.539389 3.45957
lowerneck -17.7804 0.552477 3.10585
upperneck 25.8544 0.84713 -2.29388
head 11.3752 0.533522 -1.21571
rclavicle 6.36111e-015 7.95139e-016
rhumerus -28.9678 0.65445 -86.8549
rradius 21.0104
rwrist -8.52457
rhand -9.37215 27.4416
rfingers 7.12502
rthumb 16.5882 -1.86945
lclavicle 6.36111e-015 7.95139e-016
lhumerus -33.9053 -20.5672 97.4847
lradius 22.3152
lwrist 19.2223
lhand -12.9292 -27.0821
lfingers 7.12502
lthumb 13.1614 2.48251
rfemur -14.5074 10.2941 15.4962
rtibia 33.602
rfoot -31.3179 -19.271
rtoes 1.38233
lfemur -4.22789 -7.7135 -20.0187
ltibia 16.8189
lfoot -17.9668 18.0351
ltoes 3.52815
119
root 4.12743 16.385 -0.239645 40.9814 86.5297 35.4443
lowerback -4.86687 0.556626 -6.12964
upperback -1.50118 1.06479 -0.0537717
thorax 1.06932 0.546138 3.44428
lowerneck -17.8832 0.53934 3.09099
upperneck 25.9259 0.823761 -2.26867
head 11.4219 0.524697 -1.20807
rclavicle -6.48224e-015 1.49089e-014
rhumerus -29.0217 0.875968 -86.9515
rradius 21.0511
rwrist -8.69992
rhand -9.41332 27.4491
rfingers 7.12502
rthumb 16.5485 -1.8653
lclavicle -6.48224e-015 1.49089e-014
lhumerus -33.9436 -20.728 97.5307
lradius 22.3953
lwrist 19.3901
lhand -12.9607 -26.972
lfingers 7.12502
lthumb 13.1311 2.5946
rfemur -14.4665 10.2631 15.4879
rtibia 33.6109
rfoot -31.4359 -19.192
rtoes 1.40787
lfemur -4.16609 -7.76627 -20.0516
ltibia 16.8307
lfoot -18.0482 18.0647
ltoes 4.03165
120
root 4.12779 16.3859 -0.239375 40.736 86.5357 35.2023
lowerback -4.91061 0.564066 -6.13099
upperback -1.48832 1.07818 -0.0496015
thorax 1.10556 0.551381 3.45096
lowerneck -17.8577 0.528671 3.0523
upperneck 26.0616 0.78038 -2.0971
head 11.4666 0.526862 -1.14529
rclavicle -8.72867e-015 -3.97569e-015
rhumerus -29.0039 0.887123 -86.9549
rradius 20.9342
rwrist -8.67263
rhand -9.52622 27.5979
rfingers 7.12502
rthumb 16.4398 -1.7255
lclavicle -8.72867e-015 -3.97569e-015
lhumerus -33.8969 -20.9019 97.5967
lradius 22.3506
lwrist 19.5918
lhand -12.9675 -26.8373
lfingers 7.12502
lthumb 13.1246 2.72964
rfemur -14.4649 10.3707 15.5098
rtibia 33.6222
rfoot -31.4778 -19.1804
rtoes 1.4352
lfemur -4.16121 -7.773 -20.0282
ltibia 16.8325
lfoot -17.8899 18.1038
ltoes 3.75662
121
root 4.12797 16.386 -0.240204 40.8476 86.547 35.3203
lowerback -4.90609 0.581079 -6.10426
upperback -1.49861 1.09938 -0.0676718
thorax 1.09111 0.562724 3.41819
lowerneck -17.9007 0.45333 2.97035
upperneck 26.4067 0.613705 -1.74877
head 11.6015 0.496248 -1.0291
rclavicle 6.6259e-015 -6.75868e-015
rhumerus -29.0747 0.838613 -86.9391
rradius 20.9454
rwrist -8.65693
rhand -9.57956 27.66
rfingers 7.12502
rthumb 16.3885 -1.66766
lclavicle 6.6259e-015 -6.75868e-015
lhumerus -33.8523 -20.9197 97.5964
lradius 22.2856
lwrist 19.5115
lhand -13.0246 -26.9575
lfingers 7.12502
lthumb 13.0695 2.61306
rfemur -14.4561 10.3885 15.5103
rtibia 33.6289
rfoot -31.5446 -19.1925
rtoes 1.37568
lfemur -4.14992 -7.74604 -20.0265
ltibia 16.8258
lfoot -17.7649 18.1246
ltoes 3.14783
122
root 4.12704 16.3855 -0.241449 41.0321 86.543 35.4971
lowerback -4.85567 0.576955 -6.1132
upperback -1.53489 1.08984 -0.0645205
thorax 1.02616 0.560965 3.42468
lowerneck -17.9092 0.542002 2.98352
upperneck 26.3264 0.755395 -1.82881
head 11.5767 0.549021 -1.03931
rclavicle -7.20284e-015 -9.44227e-015
rhumerus -29.2104 0.952678 -86.954
rradius 21.0941
rwrist -8.75346
rhand -9.48813 27.4792
rfingers 7.12502
rthumb 16.4765 -1.84115
lclavicle -7.20284e-015 -9.44227e-015
lhumerus -33.9134 -20.923 97.6267
lradius 22.3583
lwrist 19.4685
lhand -13.0916 -27.0682
lfingers 7.12502
lthumb 13.0049 2.50647
rfemur -14.4539 10.3449 15.4879
rtibia 33.6295
rfoot -31.6797 -18.9459
rtoes 1.42974
lfemur -4.14872 -7.71351 -20.0421
ltibia 16.8216
lfoot -17.9895 18.0372
ltoes 3.77011
123
root 4.12744 16.3852 -0.243417 40.4717 86.5043 34.946
lowerback -4.87882 0.58309 -6.13608
upperback -1.53033 1.10043 -0.0423638
thorax 1.04176 0.565659 3.46148
lowerneck -17.8792 0.562188 3.07308
upperneck 26.1446 0.863928 -2.2255
head 11.5057 0.551945 -1.1841
rclavicle -1.56776e-015 7.55382e-015
rhumerus -29.1749 0.870081 -86.8862
rradius 20.9969
rwrist -8.5999
rhand -9.34482 27.3443
rfingers 7.12502
rthumb 16.6145 -1.96454
lclavicle -1.56776e-015 7.55382e-015
lhumerus -33.9788 -21.0021 97.7178
lradius 22.4424
lwrist 19.6023
lhand -13.411 -27.0701
lfingers 7.12502
lthumb 12.697 2.52396
rfemur -14.4456 10.3665 15.4743
rtibia 33.6311
rfoot -31.5623 -18.6385
rtoes 1.39932
lfemur -4.13181 -7.59899 -20.0478
ltibia 16.8104
lfoot -18.0886 17.9284
ltoes 4.33806
124
root 4.12854 16.3854 -0.24437 40.4142 86.4925 34.9055
lowerback -4.90483 0.584529 -6.15495
upperback -1.5183 1.1054 -0.0398108
thorax 1.06777 0.567031 3.47558
lowerneck -17.851 0.593126 3.12475
upperneck 26.077 0.94619 -2.41714
head 11.4778 0.56863 -1.25087
rclavicle -7.45598e-015 1.23246e-014
rhumerus -29.0921 0.804371 -86.8538
rradius 20.8005
rwrist -8.47066
rhand -9.32145 27.471
rfingers 7.12502
rthumb 16.637 -1.83598
lclavicle -7.45598e-015 1.23246e-014
lhumerus -34.0365 -21.126 97.798
lradius 22.5246
lwrist 19.7548
lhand -14.0632 -27.5509
lfingers 7.12502
lthumb 12.0681 2.08112
rfemur -14.4412 10.4347 15.4699
rtibia 33.6389
rfoot -31.3492 -18.7265
rtoes 1.1278
lfemur -4.11724 -7.43252 -20.049
ltibia 16.7867
lfoot -17.949 17.7958
ltoes 4.08012
125
root 4.12868 16.3872 -0.243935 41.2079 86.5246 35.6768
lowerback -4.90015 0.563694 -6.1747
upperback -1.54155 1.07808 -0.0470976
thorax 1.04374 0.554884 3.47735
lowerneck -17.8603 0.609378 3.11145
upperneck 26.2043 0.938517 -2.27193
head 11.5276 0.585276 -1.19677
rclavicle -1.24687e-014 -5.96354e-015
rhumerus -29.1439 0.942558 -86.9056
rradius 20.7826
rwrist -8.52589
rhand -9.42943 27.5271
rfingers 7.12502
rthumb 16.533 -1.78856
lclavicle -1.24687e-014 -5.96354e-015
lhumerus -34.0568 -21.187 97.8012
lradius 22.5801
lwrist 19.6617
lhand -14.2161 -28.0045
lfingers 7.12502
lthumb 11.9207 1.63613
rfemur -14.4675 10.4259 15.4556
rtibia 33.6447
rfoot -31.3432 -18.8081
rtoes 0.914988
lfemur -4.1462 -7.41352 -20.0564
ltibia 16.7716
lfoot -17.883 17.7271
ltoes 3.96083
126
root 4.12938 16.3875 -0.245416 42.0389 86.521 36.4743
lowerback -4.88927 0.556285 -6.18827
upperback -1.57989 1.06768 -0.0594715
thorax 0.9991 0.552282 3.471
lowerneck -17.8838 0.562036 2.95204
upperneck 26.4519 0.80515 -1.83467
head 11.6211 0.571028 -1.02893
rclavicle 2.4176e-014 -1.17283e-014
rhumerus -29.2336 0.980582 -86.9006
rradius 20.8258
rwrist -8.47972
rhand -9.48693 27.3606
rfingers 7.12502
rthumb 16.4777 -1.95968
lclavicle 2.4176e-014 -1.17283e-014
lhumerus -34.0593 -21.1956 97.7937
lradius 22.5904
lwrist 19.4502
lhand -13.949 -27.6002
lfingers 7.12502
lthumb 12.1783 2.02526
rfemur -14.5002 10.3514 15.3932
rtibia 33.6521
rfoot -31.3711 -18.7431
rtoes 0.913852
lfemur -4.16272 -7.57783 -20.1171
ltibia 16.7488
lfoot -17.7966 17.8827
ltoes 3.61714
